<?xml version="1.0" encoding="UTF-8"?>
<svg version="1.1" xmlns="http://www.w3.org/2000/svg" width="24" height="24">
<path d="M0 0 C3.8063457 0.67170806 7.35206816 1.72746564 11 3 C10.95875 3.78375 10.9175 4.5675 10.875 5.375 C10.71271266 8.16116119 10.71271266 8.16116119 13 10 C13.125 12.625 13.125 12.625 13 15 C4.79450185 18.2933632 -0.61225062 18.0686888 -9 15 C-9.46192125 10.07284004 -7.8275283 6.49267375 -6 2 C-4.35 2.33 -2.7 2.66 -1 3 C-0.67 2.01 -0.34 1.02 0 0 Z M-2 6 C-2 6.66 -2 7.32 -2 8 C-1.34 7.67 -0.68 7.34 0 7 C-0.66 6.67 -1.32 6.34 -2 6 Z M5 6 C4.67 6.66 4.34 7.32 4 8 C4.66 8 5.32 8 6 8 C5.67 7.34 5.34 6.68 5 6 Z " fill="#FF693D" transform="translate(10,3)"/>
</svg>
