<?xml version="1.0" encoding="UTF-8"?>
<svg version="1.1" xmlns="http://www.w3.org/2000/svg" width="24" height="24">
<path d="M0 0 C4.62 0 9.24 0 14 0 C14.28875 1.546875 14.5775 3.09375 14.875 4.6875 C15.59575178 8.31700003 16.42690393 11.62907984 18 15 C16.35 15.33 14.7 15.66 13 16 C13 16.99 13 17.98 13 19 C11.875 20.75 11.875 20.75 10 22 C6.14751405 21.75921963 4.23960066 21.15973378 1 19 C1 18.01 1 17.02 1 16 C-0.65 15.67 -2.3 15.34 -4 15 C-3.71125 14.38125 -3.4225 13.7625 -3.125 13.125 C-1.57471197 8.81864436 -0.83983394 4.49911039 0 0 Z " fill="#FF693C" transform="translate(5,1)"/>
</svg>
