<?xml version="1.0" encoding="UTF-8"?>
<svg version="1.1" xmlns="http://www.w3.org/2000/svg" width="24" height="24">
<path d="M0 0 C0.78375 0.33 1.5675 0.66 2.375 1 C5.20266855 2.07720707 6.22852426 2.0264725 9 1 C9.28875 2.11375 9.5775 3.2275 9.875 4.375 C10.69241329 8.00291092 10.69241329 8.00291092 13 10 C13 11.32 13 12.64 13 14 C12.01 14 11.02 14 10 14 C10 16.97 10 19.94 10 23 C7.69 23.33 5.38 23.66 3 24 C3 22.02 3 20.04 3 18 C1.68 18 0.36 18 -1 18 C-1 19.98 -1 21.96 -1 24 C-3.31 23.67 -5.62 23.34 -8 23 C-8 20.03 -8 17.06 -8 14 C-8.99 14 -9.98 14 -11 14 C-10.50557747 9.64908177 -9.21609965 7.73822101 -6.0625 4.75 C-5.35222656 4.06421875 -4.64195312 3.3784375 -3.91015625 2.671875 C-2 1 -2 1 0 0 Z " fill="#FF6739" transform="translate(11,0)"/>
</svg>
